# xmcd
#
# Track frame offsets:
# 183
# 12708
# 24783
# 32283
# 44933
# 54708
# 69858
# 80433
# 91483
# 101770
# 112233
# 122108
# 130233
# 141720
#
# Disc length: 2157 seconds
#
#
# Revision: 2
# Processed by: cddbd v1.5.1PL2 Copyright (c) Steve Scherf et al.
# Submitted via: FreeRIP 2.944 
#
DISCID=cb086b0e
DTITLE=Fats Domino - 011 Fats Domino in concert!
DYEAR=1965
DGENRE=Blues
TTITLE0=Blueberry Hill
TTITLE1=Let the four winds blow
TTITLE2=Whole lotta loving
TTITLE3=Jambalaya (on the bayou)
TTITLE4=Ain't that a shame
TTITLE5=So long
TTITLE6=Blue Monday
TTITLE7=You win again
TTITLE8=Walking to new orleans
TTITLE9=I'm walking
TTITLE10=My blue heaven
TTITLE11=I want to walk you home
TTITLE12=When the saints go marching in
TTITLE13=Deep in the heart of Texas
EXTD=YEAR: 1965
EXTT0=
EXTT1=
EXTT2=
EXTT3=
EXTT4=
EXTT5=
EXTT6=
EXTT7=
EXTT8=
EXTT9=
EXTT10=
EXTT11=
EXTT12=
EXTT13=
PLAYORDER=
